<svg width="631" height="862" viewBox="0 0 631 862" fill="none" xmlns="http://www.w3.org/2000/svg">
<g clip-path="url(#clip0_52_371)">
<path d="M630 0H0V627.01H630V0Z" fill="#F0C800"/>
<path d="M12.0532 352.579C17.988 352.579 23.7393 352.579 29.4001 352.034L35.1512 351.398C38.7121 351.398 42.183 350.762 45.6526 350.217C49.1221 349.672 50.1264 349.49 52.409 349.126C54.6916 348.763 58.1606 348.127 60.8997 347.491C63.6388 346.854 65.6478 346.4 68.0217 345.855C70.3956 345.31 72.7697 344.674 75.0523 343.947L82.4485 341.675L88.1996 339.767L95.87 336.859L100.344 335.041C102.992 333.86 105.73 332.679 108.286 331.406L111.117 330.043C114.039 328.59 116.961 327.136 120.248 325.591C123.352 323.864 126.365 322.138 129.378 320.32C151.148 306.515 170.722 289.546 187.448 269.978V269.978C194.57 262.072 200.504 254.53 204.978 248.623C210.192 240.283 216.316 232.543 223.239 225.542C235.339 213.488 249.708 203.926 265.523 197.402C281.338 190.878 298.29 187.52 315.411 187.52C332.531 187.52 349.483 190.878 365.298 197.402C381.113 203.926 395.482 213.488 407.582 225.542C410.817 228.855 413.865 232.343 416.712 235.992V235.992V236.446C419.768 240.314 422.604 244.349 425.205 248.532C439.905 268.251 470.856 305.054 503.269 314.959C538.097 293.766 578.225 282.774 619.044 283.245H616.762C606.992 283.245 567.914 280.7 541.253 263.253C508.201 241.535 500.621 228.54 480.991 199.007C479.713 196.975 478.144 195.138 476.334 193.555C458.767 170.514 436.426 151.502 410.828 137.808C385.229 124.114 356.973 116.06 327.972 114.189C298.971 112.319 269.904 116.678 242.744 126.969C215.584 137.26 190.965 153.244 170.556 173.836C159.448 184.773 149.672 196.973 141.431 210.185H140.882C128.128 231.97 109.856 250.045 87.892 262.61C65.9277 275.174 41.0384 281.788 15.7045 281.791C10.3949 281.735 5.092 281.402 -0.182373 280.791V353.488C4.18092 352.953 8.56921 352.65 12.9649 352.579H12.0532Z" fill="#006FB9"/>
<path d="M616.944 283.427H619.227C578.408 282.956 538.28 293.947 503.452 315.14C495.099 320.3 487.08 325.976 479.44 332.133C458.681 347.397 440.443 365.793 425.386 386.656C422.595 390.926 419.546 395.023 416.255 398.924V398.924C413.408 402.572 410.36 406.061 407.125 409.374C395.025 421.427 380.656 430.989 364.841 437.513C349.026 444.037 332.074 447.396 314.954 447.396C297.834 447.396 280.881 444.037 265.066 437.513C249.251 430.989 234.882 421.427 222.782 409.374C215.785 402.305 209.655 394.435 204.521 385.929C190.004 366.573 160.33 331.406 129.012 320.774C126.091 322.592 123.078 324.319 119.882 326.045C86.9204 344.198 49.8128 353.587 12.1423 353.306H13.2391C19.9956 353.306 61.9034 354.942 89.9338 373.389C111.395 386.296 129.357 404.235 142.251 425.64C143.986 428.366 145.813 431.092 147.639 433.727C148.461 434.999 149.374 436.271 150.196 437.634C151.292 439.266 152.545 440.788 153.938 442.178C159.119 448.977 164.763 455.414 170.83 461.443C192.458 483.008 218.686 499.448 247.57 509.545C276.454 519.641 307.253 523.134 337.679 519.765C368.106 516.395 397.378 506.25 423.326 490.081C449.274 473.912 471.23 452.135 487.565 426.366V426.366C500.42 404.206 518.924 385.814 541.208 373.05C563.492 360.285 588.768 353.6 614.479 353.67C619.728 353.653 624.972 353.956 630.183 354.578V283.154C625.709 282.518 621.327 282.881 616.944 283.427Z" fill="#6CC24A"/>
</g>
<path d="M62.4741 823.711C46.6224 823.711 33.2573 818.428 22.3788 807.86C11.5002 797.292 6.06092 783.461 6.06092 766.366C6.06092 749.375 11.552 735.543 22.5342 724.872C33.62 714.2 46.8297 708.865 62.1633 708.865C76.2536 708.865 87.5466 712.439 96.0422 719.588C104.641 726.737 110.184 735.336 112.671 745.386L92.4679 751.757C90.9138 745.541 87.6502 740.309 82.6771 736.061C77.7041 731.71 70.8661 729.534 62.1633 729.534C53.1496 729.534 45.2238 732.746 38.3858 739.169C31.6515 745.593 28.2843 754.658 28.2843 766.366C28.2843 777.555 31.5997 786.413 38.2304 792.941C44.9648 799.468 53.046 802.731 62.4741 802.731C71.0733 802.731 77.9113 800.504 82.988 796.049C88.1682 791.594 91.639 786.31 93.4003 780.197L113.448 786.258C112.308 790.713 110.443 795.065 107.853 799.312C105.367 803.56 102.103 807.549 98.0626 811.279C94.0219 815.009 88.8935 818.013 82.6771 820.292C76.5644 822.572 69.8301 823.711 62.4741 823.711ZM147.649 799.157C151.482 802.99 156.093 804.907 161.48 804.907C166.867 804.907 171.426 802.99 175.156 799.157C178.989 795.324 180.906 789.988 180.906 783.15C180.906 776.312 178.989 770.976 175.156 767.143C171.426 763.309 166.867 761.393 161.48 761.393C156.093 761.393 151.482 763.309 147.649 767.143C143.919 770.976 142.054 776.312 142.054 783.15C142.054 789.988 143.919 795.324 147.649 799.157ZM132.729 754.089C140.396 746.422 149.98 742.588 161.48 742.588C172.98 742.588 182.512 746.422 190.075 754.089C197.742 761.755 201.575 771.442 201.575 783.15C201.575 794.857 197.742 804.544 190.075 812.211C182.512 819.878 172.98 823.711 161.48 823.711C149.98 823.711 140.396 819.878 132.729 812.211C125.166 804.544 121.385 794.857 121.385 783.15C121.385 771.442 125.166 761.755 132.729 754.089ZM238.56 821.38H217.891V708.865H238.56V821.38ZM286.176 722.074V744.919H301.561V763.258H286.176V795.272C286.176 798.484 286.901 800.763 288.351 802.11C289.802 803.457 292.081 804.13 295.189 804.13C297.987 804.13 300.111 803.923 301.561 803.508V820.603C298.556 821.847 294.671 822.468 289.905 822.468C282.446 822.468 276.54 820.396 272.189 816.252C267.837 812.004 265.662 806.202 265.662 798.846V763.258H251.83V744.919H255.716C259.549 744.919 262.45 743.832 264.418 741.656C266.491 739.377 267.527 736.424 267.527 732.798V722.074H286.176ZM364.679 744.609V765.433C362.607 765.019 360.534 764.812 358.462 764.812C352.557 764.812 347.791 766.521 344.165 769.94C340.539 773.256 338.725 778.747 338.725 786.413V821.38H318.056V744.919H338.104V756.264C341.834 748.287 349.086 744.298 359.861 744.298C361.001 744.298 362.607 744.401 364.679 744.609ZM375.011 800.556C375.011 794.028 377.135 788.796 381.383 784.859C385.63 780.922 391.121 778.436 397.856 777.4L416.66 774.602C420.494 774.084 422.41 772.271 422.41 769.163C422.41 766.262 421.271 763.879 418.991 762.014C416.816 760.149 413.656 759.217 409.511 759.217C405.16 759.217 401.689 760.409 399.099 762.791C396.613 765.174 395.214 768.127 394.903 771.65L376.565 767.764C377.29 761.134 380.554 755.28 386.356 750.203C392.158 745.127 399.824 742.588 409.356 742.588C420.753 742.588 429.145 745.334 434.532 750.825C439.92 756.212 442.613 763.154 442.613 771.65V809.258C442.613 813.817 442.924 817.858 443.546 821.38H424.586C424.068 819.101 423.809 816.045 423.809 812.211C418.94 819.774 411.428 823.556 401.275 823.556C393.401 823.556 387.029 821.277 382.16 816.718C377.394 812.159 375.011 806.772 375.011 800.556ZM405.626 808.171C410.496 808.171 414.484 806.824 417.593 804.13C420.804 801.333 422.41 796.774 422.41 790.454V787.035L405.16 789.677C398.84 790.609 395.68 793.821 395.68 799.312C395.68 801.799 396.561 803.923 398.322 805.684C400.083 807.342 402.518 808.171 405.626 808.171ZM484.117 777.4V821.38H463.448V744.919H483.495V754.399C485.671 750.67 488.779 747.82 492.82 745.852C496.861 743.883 501.108 742.899 505.563 742.899C514.577 742.899 521.415 745.748 526.077 751.447C530.843 757.041 533.226 764.294 533.226 773.204V821.38H512.557V776.778C512.557 772.22 511.365 768.542 508.982 765.744C506.703 762.947 503.18 761.548 498.415 761.548C494.063 761.548 490.592 763.05 488.002 766.055C485.412 769.06 484.117 772.841 484.117 777.4ZM569.278 774.447H603.468C603.261 770.199 601.707 766.625 598.806 763.724C596.009 760.823 591.864 759.372 586.373 759.372C581.4 759.372 577.36 760.927 574.251 764.035C571.143 767.143 569.486 770.614 569.278 774.447ZM605.488 794.339L622.739 799.468C620.667 806.513 616.574 812.315 610.461 816.873C604.452 821.432 596.941 823.711 587.927 823.711C576.945 823.711 567.621 820.033 559.954 812.677C552.287 805.218 548.454 795.272 548.454 782.839C548.454 771.028 552.183 761.393 559.643 753.933C567.103 746.37 575.909 742.588 586.062 742.588C597.873 742.588 607.094 746.111 613.725 753.156C620.459 760.201 623.827 769.888 623.827 782.217C623.827 783.046 623.775 783.979 623.671 785.015C623.671 786.051 623.671 786.88 623.671 787.501L623.516 788.589H568.812C569.019 793.562 570.988 797.706 574.718 801.022C578.447 804.337 582.902 805.995 588.083 805.995C596.889 805.995 602.691 802.11 605.488 794.339Z" fill="#1B1A16"/>
<defs>
<clipPath id="clip0_52_371">
<rect width="630" height="627.01" fill="white"/>
</clipPath>
</defs>
</svg>
